<?xml version="1.0" ?><svg height="42" id="svg3236" version="1.1" width="42" xmlns="http://www.w3.org/2000/svg" xmlns:cc="http://creativecommons.org/ns#" xmlns:dc="http://purl.org/dc/elements/1.1/" xmlns:inkscape="http://www.inkscape.org/namespaces/inkscape" xmlns:rdf="http://www.w3.org/1999/02/22-rdf-syntax-ns#" xmlns:sodipodi="http://sodipodi.sourceforge.net/DTD/sodipodi-0.dtd" xmlns:svg="http://www.w3.org/2000/svg"><defs id="defs3238"/><g id="layer1" transform="translate(0,-1010.3622)"><g id="g3266" transform="translate(-492.08524,657.34812)"><g id="g3795" transform="translate(43.79004,-45.758815)"><g id="g3895"><g id="g3927" transform="translate(-114.00683,33.410715)"><path d="M 30.8125 0.125 A 1.50015 1.50015 0 0 0 29.5 1.65625 L 29.5 10.21875 L 24.28125 10.46875 C 23.490707 9.779887 22.474666 9.34375 21.34375 9.34375 C 19.821208 9.34375 18.470544 10.124007 17.65625 11.28125 L 10.28125 15.3125 A 1.50015 1.50015 0 0 0 9.9375 17.71875 L 15.34375 23.0625 A 1.5027644 1.5027644 0 0 0 17.625 22.84375 L 17.84375 25.34375 L 17.84375 31.34375 L 17.84375 40.34375 A 1.50015 1.50015 0 1 0 20.84375 40.34375 L 20.84375 31.34375 L 20.84375 25.34375 L 21.84375 25.34375 L 21.84375 31.34375 L 21.84375 40.34375 A 1.50015 1.50015 0 1 0 24.84375 40.34375 L 24.84375 31.34375 L 24.84375 25.34375 L 25.71875 14.875 C 25.796934 14.542761 25.84375 14.199854 25.84375 13.84375 C 25.84375 13.778997 25.815208 13.720336 25.8125 13.65625 L 25.84375 13.375 L 31.0625 13.125 A 1.50015 1.50015 0 0 0 32.5 11.65625 L 32.5 1.65625 A 1.50015 1.50015 0 0 0 30.8125 0.125 z M 21.34375 1.34375 C 19.410753 1.34375 17.84375 2.9107534 17.84375 4.84375 C 17.84375 6.7767466 19.410753 8.34375 21.34375 8.34375 C 23.276747 8.34375 24.84375 6.7767466 24.84375 4.84375 C 24.84375 2.9107534 23.276747 1.34375 21.34375 1.34375 z M 17 15.09375 L 17.46875 20.9375 A 1.5027644 1.5027644 0 0 0 17.4375 20.90625 L 13.46875 17 L 17 15.09375 z " id="path3037" style="fill:#1a1a1a;fill-rule:evenodd;stroke:none" transform="translate(562.30203,365.36218)"/></g></g></g></g></g></svg>