<?xml version="1.0" encoding="iso-8859-1"?>
<!-- Generator: Adobe Illustrator 16.0.0, SVG Export Plug-In . SVG Version: 6.00 Build 0)  -->
<!DOCTYPE svg PUBLIC "-//W3C//DTD SVG 1.1//EN" "http://www.w3.org/Graphics/SVG/1.1/DTD/svg11.dtd">
<svg version="1.1" id="Capa_1" xmlns="http://www.w3.org/2000/svg" xmlns:xlink="http://www.w3.org/1999/xlink" x="0px" y="0px"
	 width="541.836px" height="541.836px" viewBox="0 0 541.836 541.836" style="enable-background:new 0 0 541.836 541.836;"
	 xml:space="preserve">
<g>
	<g>
		<path d="M157.25,274.019c29.607,8.326,64.329-23.056,77.606-70.086c13.236-47.053,11.671-79.743-17.913-88.092
			c-29.607-8.332-87.683,12.594-100.931,59.635C102.747,222.5,127.666,265.659,157.25,274.019z"/>
		<path d="M135.606,335.219c-5.786,0-10.486-4.706-10.486-10.485c0-2.032,0.741-3.842,1.746-5.441c-0.047,0-0.105-0.012-0.152-0.012
			c-9.721,0-17.626,7.893-17.626,17.62s7.894,17.62,17.626,17.62s17.632-7.881,17.632-17.62c0-1.88-0.368-3.655-0.917-5.36
			C141.503,333.747,138.753,335.219,135.606,335.219z"/>
		<path d="M529.439,262.593c-6.539-9.435-13.966-20.12-16.628-33.479c-2.382-12.062-0.141-37.81,25.409-48.857l-4.741-10.965
			c-28.27,12.232-36.619,40.8-32.38,62.151c3.129,15.811,11.665,28.101,18.52,37.98c6.294,9.067,11.269,16.226,10.077,22.25
			c-0.863,4.402-5.348,9.225-13.288,14.316c-22.49,14.422-50.655,11.291-70.589,6.48c0.689-4.484,1.121-9.025,1.121-13.65
			c0-68.509-77.77-124.052-173.702-124.052c-7.654,0-15.163,0.403-22.555,1.086c-1.897,12.459-5.021,23.582-6.918,30.337
			c-13.014,46.083-45.453,79.515-77.139,79.515c-4.04,0-8.045-0.549-11.898-1.623c-18.859-5.336-35.621-22.625-44.601-45.634
			L24.259,393.85c-2.055-0.829-4.279-1.308-6.644-1.308C7.894,392.542,0,400.424,0,410.163c0,9.727,7.894,17.62,17.626,17.62
			c7.111,0,13.201-4.228,15.998-10.288l229.198,4.998c3.456,0.141,6.89,0.374,10.404,0.374c0.858,0,1.711-0.093,2.563-0.104
			l4.227,0.104l-0.21-0.245c80.794-2.16,147.458-43.637,163.433-98.473c9.715,2.347,21.299,4.32,33.514,4.32
			c15.297,0,31.539-3.083,46.077-12.425c11.094-7.111,17.002-14.105,18.591-22.034C543.616,283.011,536.726,273.097,529.439,262.593
			z M129.388,363.734c-16.202,0-29.35-13.148-29.35-29.356c0-16.219,13.148-29.355,29.35-29.355
			c16.202,0,29.356,13.137,29.356,29.355C158.744,350.586,145.602,363.734,129.388,363.734z"/>
	</g>
</g>
<g>
</g>
<g>
</g>
<g>
</g>
<g>
</g>
<g>
</g>
<g>
</g>
<g>
</g>
<g>
</g>
<g>
</g>
<g>
</g>
<g>
</g>
<g>
</g>
<g>
</g>
<g>
</g>
<g>
</g>
</svg>
